# xmcd
#
# Track frame offsets:
#	150
#	20072
#	38071
#	56474
#	75395
#	91648
#	109754
#	127186
#	149859
#	165152
#	182173
#	201411
#	217641
#	234368
#
# Disc length: 3371 seconds
#
# Revision: 2
# Processed by: cddbd v1.5.2PL0 Copyright (c) Steve Scherf et al.
# Submitted via: EasyCDDAExtractor 15.1.0.1
#
DISCID=b60d290e
DTITLE=นิตยา บุญสูงเนิน - ก้าวใหม่1
DYEAR=2542
DGENRE=Pop
TTITLE0=วันเวลา
TTITLE1=เจ็บนิดเดียว
TTITLE2=อยากบอกว่าคิดถึง
TTITLE3=ชีวิตคนกลางคืน
TTITLE4=รักเหลือเกิน
TTITLE5=ความรักอยู่รอบกายเธอ
TTITLE6=ต่อเวลา...ให้ฉันสักนิด
TTITLE7=ปวดร้าว
TTITLE8=รางวัลแห่งความภักดี
TTITLE9=ทำไมไม่ลืม
TTITLE10=ช้ำคือเรา
TTITLE11=เจ็บหนักกว่าใคร
TTITLE12=เพื่อนรัก-เพื่อนแค้น
TTITLE13=พ่อผู้ยิ่งใหญ่
EXTD=
EXTT0=
EXTT1=
EXTT2=
EXTT3=
EXTT4=
EXTT5=
EXTT6=
EXTT7=
EXTT8=
EXTT9=
EXTT10=
EXTT11=
EXTT12=
EXTT13=
PLAYORDER=
